<?xml version="1.0" encoding="UTF-8"?><svg xmlns="http://www.w3.org/2000/svg" viewBox="0 0 136.39 138.99"><defs><style>.cls-1{fill:none;stroke:#000;stroke-miterlimit:10;stroke-width:2px;}</style></defs><g id="Nomenclador"><path class="cls-1" d="M55.53,61.41v-19.07c0-3.06,2.48-5.53,5.53-5.53h30.39c3.06,0,5.53,2.48,5.53,5.53v21.04c0,2.44-1.98,4.42-4.42,4.42-.27,0-.17,2.55-.67,4.42-.29,1.1-1.85,1.12-2.15,.02-.52-1.88-1.52-4.44-3.08-4.44-1.09,0-5.47,0-10.47,0"/><path class="cls-1" d="M38.88,92.4c.24,0,.19,2.02,.53,3.79,.25,1.29,2.07,1.37,2.45,.12,.55-1.8,1.51-3.91,2.92-3.91,2.41,0,20.87,0,26.72,0,.29,0,1.86-.03,3.12-1.29,.8-.8,1.29-1.9,1.29-3.12v-22.15c0-2.44-1.98-4.42-4.42-4.42H38.88c-2.44,0-4.42,1.98-4.42,4.42v22.15c0,2.44,1.98,4.42,4.42,4.42Z"/><rect x="39.32" y="74.27" width="32" height="2" rx="1" ry="1"/><rect x="39.32" y="79.73" width="32" height="2" rx="1" ry="1"/><path d="M71.94,46.76c.03-.67,.28-1.33,.74-1.99,.46-.66,1.11-1.2,1.95-1.6s1.81-.58,2.9-.53c1.01,.05,1.9,.28,2.66,.69,.76,.41,1.33,.95,1.73,1.62,.39,.67,.57,1.38,.53,2.13-.03,.59-.18,1.11-.44,1.55-.26,.44-.57,.81-.92,1.12-.35,.31-.97,.83-1.87,1.55-.25,.21-.45,.39-.6,.54-.15,.16-.27,.3-.34,.44-.08,.13-.14,.27-.18,.4-.05,.13-.12,.37-.21,.71-.17,.72-.6,1.06-1.3,1.03-.36-.02-.66-.15-.9-.4-.24-.25-.34-.61-.32-1.08,.03-.59,.15-1.09,.35-1.51,.2-.42,.46-.79,.78-1.1,.32-.31,.74-.68,1.28-1.1,.47-.37,.8-.65,1.01-.84,.21-.19,.39-.4,.54-.64,.15-.24,.23-.5,.24-.79,.03-.56-.16-1.04-.55-1.45-.4-.41-.93-.62-1.58-.66-.77-.04-1.35,.13-1.73,.5-.38,.37-.72,.93-1.01,1.67-.28,.78-.75,1.15-1.41,1.12-.39-.02-.72-.17-.97-.46-.25-.29-.38-.6-.36-.92Zm4.56,11.76c-.43-.02-.79-.18-1.1-.47-.31-.29-.44-.69-.42-1.18,.02-.44,.19-.8,.52-1.09,.32-.29,.71-.42,1.16-.4,.44,.02,.8,.19,1.09,.51,.29,.32,.42,.69,.4,1.14-.02,.49-.2,.87-.53,1.13-.33,.26-.7,.39-1.11,.37Z"/></g><g id="Circulo"><circle class="cls-1" cx="66.74" cy="68.7" r="61.08"/></g></svg>