<?xml version="1.0" encoding="UTF-8"?><svg xmlns="http://www.w3.org/2000/svg" viewBox="0 0 136.39 138.99"><defs><style>.cls-1{fill:none;stroke:#000;stroke-width:2px;}.cls-1,.cls-2{stroke-miterlimit:10;}.cls-2{stroke:#fff;stroke-width:.25px;}</style></defs><g id="Ceta_sin_clave"><g><path class="cls-2" d="M47.65,75.58c-2.33,0-4.2,1.9-4.2,4.22,0,2.33,1.9,4.2,4.22,4.2,2.32-.01,4.2-1.9,4.2-4.22,0-2.33-1.9-4.2-4.22-4.2Zm1.85,4.22c0,1.02-.83,1.83-1.85,1.83s-1.83-.83-1.83-1.85c0-1.02,.83-1.83,1.85-1.83,1.01,0,1.82,.82,1.83,1.83,0,0,0,.02,0,.02Z"/><path class="cls-2" d="M87.46,75.58c-2.33,0-4.2,1.9-4.2,4.22,0,2.33,1.9,4.2,4.22,4.2,2.32-.01,4.2-1.9,4.2-4.22,0-2.33-1.9-4.2-4.22-4.2Zm1.85,4.22c0,1.02-.83,1.83-1.85,1.83s-1.83-.83-1.83-1.85c0-1.02,.83-1.83,1.85-1.83,1.01,0,1.83,.82,1.83,1.83v.02Z"/><path class="cls-2" d="M73.93,78.86h-14.02c-.65,0-1.19,.53-1.19,1.19s.53,1.19,1.19,1.19h14.02c.66,0,1.19-.53,1.19-1.19s-.53-1.19-1.19-1.19Z"/><path class="cls-2" d="M100.06,66.36c0-1.96-1.59-3.56-3.56-3.56h-4.1l-1.34-4.49c-1.76-4.56-6.15-7.55-11.04-7.53h-25.45c-4.7,.01-8.96,2.8-10.84,7.12l-1.8,4.96h-4.39c-.98,0-1.91,.4-2.58,1.1-1.36,1.42-1.3,3.67,.12,5.03l3.38,3.21s.1,.07,.16,.1c-.87,1.03-1.41,2.35-1.41,3.8v7.23c0,1.95,.95,3.66,2.4,4.74,0,0,0,0,0,0v5.62c0,2.62,2.12,4.74,4.74,4.74h2.66c2.29,0,4.14-1.84,4.16-4.13v-5.03l32.09,.09v4.33c0,2.62,2.12,4.74,4.74,4.74h2.69c2.29-.02,4.13-1.88,4.13-4.16v-6.1c1.47-1.08,2.43-2.8,2.43-4.77v-7.2c0-1.58-.63-3.01-1.63-4.07l3.35-3.21c.7-.67,1.1-1.6,1.1-2.57Zm-45.49-13.23h25.45c3.87-.02,7.37,2.33,8.8,5.93l3.37,11.31c-.29-.04-.58-.09-.88-.09-3.19,.04-7.09,0-11.49-.06-4.4-.06-8.95-.06-12.61-.06h-24.09c-.5,0-.97,.08-1.43,.19l2.12-5.82s.03-.09,.05-.13l2.07-5.69c1.53-3.4,4.92-5.58,8.65-5.59Zm-17.85,14.12c-.35-.33-.46-.84-.28-1.29,.18-.45,.62-.75,1.1-.75h3.53l-1.67,4.6-2.67-2.56Zm12.06,27.04c0,.99-.8,1.78-1.79,1.79h-2.66c-1.31,0-2.37-1.06-2.37-2.37v-4.58c.38,.07,.76,.12,1.16,.12l5.66,.02v5.03Zm43.65-.04c0,.99-.8,1.79-1.79,1.79h-2.66c-1.31,0-2.37-1.06-2.37-2.37v-4.31l5.72,.02-.02-.05c.39,0,.76-.04,1.13-.11v5.04Zm2.45-10.77c0,.95-.37,1.86-1.04,2.53-.19,.18-.39,.33-.61,.47-.09,.03-.16,.08-.24,.13-.51,.27-1.08,.43-1.68,.44l-6.83-.02s-.04-.01-.06-.01-.04,.01-.06,.01l-34.29-.12s-.07-.02-.11-.02c-.04,0-.07,.02-.11,.02l-6.73-.02c-1.96,0-3.56-1.59-3.56-3.56v-7.23c0-1.96,1.59-3.56,3.56-3.56h24.11c3.64-.04,8.31,0,12.57,.06,4.26,.06,8.27,.06,11.53,.06,1.96,0,3.56,1.59,3.56,3.56v7.28Zm2.4-16.28l-2.77,2.65-1.4-4.69h3.36c.49,0,.92,.3,1.1,.75,.18,.45,.06,.96-.28,1.29Z"/></g></g><g id="Circulo"><circle class="cls-1" cx="66.74" cy="68.7" r="61.08"/></g></svg>