<?xml version="1.0" encoding="UTF-8"?><svg id="Circulo" xmlns="http://www.w3.org/2000/svg" viewBox="0 0 136.39 138.99"><defs><style>.cls-1{fill:none;stroke:#000;stroke-miterlimit:10;stroke-width:2px;}.cls-2{fill:#109dd9;}.cls-3{fill:#010101;}</style></defs><g><path class="cls-3" d="M80.75,74.51h-24.39c-.45,0-.82,.47-.82,1.05v.81c0,.58,.37,1.05,.82,1.05h24.39c.45,0,.82-.47,.82-1.05v-.81c0-.58-.37-1.05-.82-1.05Z"/><path class="cls-3" d="M70.63,82.51h-14.28c-.45,0-.81,.35-.81,.79v.61c0,.43,.36,.79,.81,.79h14.28c.45,0,.81-.35,.81-.79v-.61c0-.43-.36-.79-.81-.79Z"/><path class="cls-2" d="M67.44,65.71s-.1,.02-.15,0c-1.25-.1-2.43-.63-3.34-1.48-.14-.13-.33-.2-.52-.2s-.38,.07-.52,.2l-.63,.63c-.08,.08-.14,.17-.18,.27-.04,.1-.06,.21-.05,.32,0,.11,.03,.22,.08,.31,.05,.1,.11,.19,.19,.26,1.35,1.26,3.09,2,4.93,2.09,.04,0,.08,.03,.11,.06,.03,.03,.04,.08,.04,.12v1.81c0,.21,.08,.41,.23,.56,.15,.15,.35,.23,.56,.23h.55c.21,0,.41-.08,.56-.23,.15-.15,.23-.35,.23-.56v-1.83s.02-.09,.04-.12c.03-.03,.07-.05,.11-.06,3.3-.38,5.37-2.43,5.37-5.36,.02-.72-.12-1.44-.4-2.1-.29-.66-.72-1.25-1.26-1.72-.98-.78-2.17-1.25-3.42-1.35l-.38-.06s-.08-.03-.11-.06c-.03-.03-.04-.08-.04-.12v-5.62s0-.05,.02-.07,.03-.04,.04-.06c.02-.01,.05-.02,.07-.02s.05,0,.07,.02c.92,.13,1.8,.52,2.51,1.12,.15,.12,.34,.18,.53,.17,.19-.01,.37-.1,.51-.23l.55-.55c.08-.08,.14-.18,.18-.28,.04-.11,.06-.22,.05-.33,0-.11-.04-.22-.09-.32-.05-.1-.12-.19-.21-.26-1.14-.94-2.54-1.52-4.02-1.64-.04,0-.08-.03-.11-.06-.03-.03-.04-.08-.04-.12v-1.37c0-.21-.08-.41-.23-.57-.15-.15-.35-.24-.56-.24h-.55c-.21,0-.41,.09-.56,.24-.15,.15-.23,.35-.23,.57v1.34s-.01,.08-.04,.12c-.03,.03-.06,.05-.11,.06-1.35,.07-2.63,.66-3.55,1.66-.92,1-1.42,2.32-1.39,3.69-.03,.68,.09,1.35,.35,1.98,.26,.63,.65,1.19,1.15,1.64,.99,.81,2.19,1.31,3.46,1.44h.24v5.93s0,.06,0,.09c0,.03-.02,.06-.05,.08Zm.06-14.01v5.22s0,.05-.02,.08c-.01,.02-.03,.04-.05,.06-.05,.02-.11,.02-.16,0-.63-.13-1.23-.41-1.74-.8-.25-.24-.44-.53-.56-.85-.12-.32-.17-.67-.14-1.01-.03-.72,.2-1.42,.66-1.96,.46-.55,1.11-.9,1.81-.99,.02,0,.03-.01,.05-.01s.04,0,.05,.01c.03,0,.05,.02,.07,.04,.02,.02,.04,.04,.05,.07,.01,.03,.01,.05,.01,.08,0,.03-.01,.05-.02,.08Zm1.95,13.87v-5.44s0-.05,.02-.07c.01-.02,.03-.04,.04-.06,.04-.01,.08-.01,.11,0,.76,.04,1.49,.31,2.08,.79,.28,.27,.49,.59,.62,.96,.13,.36,.19,.75,.16,1.13,0,.77-.29,1.51-.82,2.06-.53,.55-1.26,.88-2.02,.9-.02,.01-.05,.02-.07,.02s-.05,0-.07-.02c-.02-.01-.04-.03-.05-.06-.01-.02-.02-.05-.03-.07,0-.03,0-.05,0-.08,0-.02,.02-.05,.03-.07Z"/><path class="cls-3" d="M44.7,75.31v10.71c0,.58,0,1.56,1.12,1.58,.15,0,.3-.01,.44-.06,.14-.05,.27-.13,.39-.23,.14-.18,.24-.4,.3-.62,.06-.23,.07-.46,.04-.69V45.77c0-2.08,.86-2.98,2.79-2.98h37.5c1.88,0,2.72,.85,2.75,2.76,0,1.35-.09,5.3-.09,5.34,0,.2,.05,.4,.14,.58,.09,.18,.22,.34,.38,.46,.09,.07,.2,.12,.31,.15,.13,.04,.26,.06,.39,.06,.33,0,.65-.14,.89-.38,.24-.24,.37-.56,.37-.9v-4.98c0-3.64-1.91-5.55-5.51-5.55H50.18c-3.63,0-5.48,1.86-5.48,5.56v29.41Z"/><path class="cls-3" d="M92.41,55.53c.01-.18,0-.35-.05-.52-.05-.17-.13-.32-.23-.45-.1-.13-.23-.23-.36-.3-.14-.07-.29-.11-.44-.11s-.3,.04-.44,.11c-.14,.07-.26,.17-.36,.3-.1,.13-.18,.28-.23,.45-.05,.17-.07,.34-.05,.52v6.62h.29c.52-.06,1.05-.06,1.57,0h.28v-6.18c.02-.15,.02-.29,.02-.44Z"/><path class="cls-3" d="M90.33,78.16h-.34v14.43c.03,.68-.04,1.36-.22,2.02-.24,.73-.73,1.35-1.38,1.74-.65,.39-1.43,.51-2.16,.35-.8-.15-1.52-.59-2.02-1.25-.5-.66-.75-1.48-.7-2.31-.06-3.14-.92-4.02-4-4.02H44.22c-.43-.02-.86,0-1.29,.06-.63,.08-1.21,.37-1.66,.83-.45,.46-.73,1.06-.79,1.71-.17,.95-.14,1.92,.09,2.85,.23,.93,.66,1.8,1.25,2.55,.63,.69,1.4,1.24,2.25,1.6,.85,.36,1.77,.53,2.7,.49h39.34c4.01,0,6.31-2.35,6.31-6.44v-14.64h-.33c-.58,.07-1.17,.07-1.76,.01Zm-8.4,18.62H46.78c-.94-.01-1.86-.28-2.68-.76-.58-.45-1-1.08-1.22-1.79-.21-.71-.21-1.47,.02-2.18,.12-.21,.31-.37,.53-.45,.08-.02,.17-.02,.26,0h36.04c.4-.05,.8,0,1.18,.12,.11,.09,.14,.45,.19,1.05v.26c.12,.95,.32,1.89,.58,2.8,.08,.31,.15,.64,.24,.96Z"/><path class="cls-2" d="M101.08,69.66h-2.26v.64c-.02,.31-.07,.63-.12,.93-.28,1.46-1,2.81-2.05,3.86-1.05,1.05-2.4,1.77-3.86,2.05-1.46,.28-2.97,.11-4.34-.48-1.37-.59-2.53-1.58-3.33-2.83-.8-1.26-1.21-2.73-1.17-4.22,.04-1.49,.52-2.94,1.39-4.15,.87-1.21,2.08-2.14,3.47-2.65,1.4-.52,2.91-.6,4.36-.25,.1,.03,.2,.03,.3,0,.1-.02,.2-.06,.28-.12,.35-.32,.68-.64,1.04-1.04l.6-.59-.29-.11c-1.78-.74-3.75-.93-5.64-.56-1.89,.38-3.63,1.3-5,2.67-1.37,1.36-2.31,3.1-2.69,5-.39,1.9-.21,3.86,.52,5.65,.72,1.79,1.96,3.33,3.56,4.42s3.47,1.68,5.4,1.71c1.93,.02,3.82-.52,5.44-1.58,1.62-1.05,2.89-2.56,3.66-4.33,.51-1.21,.76-2.52,.74-3.84v-.2Z"/><path class="cls-2" d="M87.5,67.95l-1.59,1.49,4.59,4.35,9.87-9.36-1.63-1.55-8.3,7.86-2.93-2.79Z"/></g><circle class="cls-1" cx="68.19" cy="69.49" r="61.08"/></svg>