<?xml version="1.0" encoding="UTF-8"?><svg xmlns="http://www.w3.org/2000/svg" viewBox="0 0 136.39 138.99"><defs><style>.cls-1{stroke-width:.75px;}.cls-1,.cls-2{fill:none;}.cls-1,.cls-2,.cls-3{stroke:#000;stroke-miterlimit:10;}.cls-2,.cls-3{stroke-width:2px;}.cls-3{fill:#fff;}</style></defs><g id="Formularios"><path class="cls-2" d="M87.4,102.4h-28.46c-2.91,0-5.29-2.33-5.35-5.24l-.04-1.98c-.06-2.74-2.18-4.99-4.91-5.22l-2.7-.23c-2.77-.23-4.91-2.55-4.91-5.34V44.34c0-2.96,2.4-5.35,5.35-5.35h41.02c2.96,0,5.35,2.4,5.35,5.35v52.71c0,2.96-2.4,5.35-5.35,5.35Z"/><rect x="60.66" y="49.22" width="22.09" height=".86" transform="translate(143.41 99.31) rotate(180)"/><rect x="60.66" y="52.24" width="22.09" height=".86"/><rect x="60.66" y="55.55" width="22.09" height=".86"/><rect x="50.88" y="49.06" width="7.8" height="7.8"/><rect x="60.64" y="62.08" width="22.09" height=".86" transform="translate(143.36 125.03) rotate(180)"/><rect x="60.48" y="65.25" width="22.09" height=".86"/><rect x="60.48" y="68.56" width="22.09" height=".86"/><rect x="50.86" y="61.92" width="7.8" height="7.8"/><rect x="60.48" y="75.24" width="22.09" height=".86" transform="translate(143.05 151.34) rotate(180)"/><rect x="60.48" y="78.25" width="22.09" height=".86"/><rect x="60.48" y="81.56" width="22.09" height=".86"/><rect x="50.86" y="74.92" width="7.8" height="7.8"/><path class="cls-3" d="M84.42,91.23c-1.04,.27-1.99-.66-1.73-1.7,.57-2.34,1.51-5.75,2.6-6.84l15.44-15.44c1.62-1.62,4.26-1.62,5.88,0h0c1.62,1.62,1.62,4.26,0,5.88l-15.44,15.44c-1.04,1.04-4.43,2.06-6.75,2.66Z"/><rect class="cls-1" x="83.88" y="85.55" width="8.23" height=".74" transform="translate(89.46 208.89) rotate(-135)"/><path d="M85.05,91.01c-.29,.29-1.62,.05-1.91-.24s-.62-.97-.34-1.26,.1-.91,.39-.62,2.14,1.83,1.85,2.11Z"/></g><g id="Circulo"><circle class="cls-2" cx="66.74" cy="68.7" r="61.08"/></g></svg>