<?xml version="1.0" encoding="UTF-8"?><svg xmlns="http://www.w3.org/2000/svg" viewBox="0 0 136.39 138.99"><defs><style>.cls-1{fill:none;stroke:#000;stroke-miterlimit:10;stroke-width:2px;}.cls-2{fill:#109dd9;}</style></defs><g id="Guías_paso_a_paso"><circle class="cls-1" cx="67.66" cy="66.74" r="10.56"/><circle class="cls-1" cx="102.08" cy="66.74" r="10.56"/><circle class="cls-1" cx="34.31" cy="66.74" r="10.56"/><line class="cls-1" x1="44.97" y1="66.74" x2="57.86" y2="66.74"/><line class="cls-1" x1="77.63" y1="66.74" x2="90.52" y2="66.74"/><line class="cls-1" x1="60.92" y1="86.29" x2="73.81" y2="86.29"/><line class="cls-1" x1="95.34" y1="86.29" x2="108.23" y2="86.29"/><line class="cls-1" x1="27.86" y1="86.29" x2="40.75" y2="86.29"/><path class="cls-2" d="M66.05,69.6h3.75c.37,0,.66,.08,.85,.23,.2,.15,.29,.36,.29,.62,0,.23-.08,.43-.23,.6-.16,.16-.39,.24-.71,.24h-5.28c-.36,0-.64-.1-.84-.3-.2-.2-.3-.43-.3-.7,0-.17,.06-.4,.19-.69,.13-.28,.27-.51,.42-.67,.64-.66,1.21-1.23,1.72-1.7,.51-.47,.88-.78,1.1-.93,.39-.28,.72-.56,.98-.84,.26-.28,.46-.57,.6-.86,.14-.29,.2-.58,.2-.86,0-.31-.07-.58-.22-.82-.15-.24-.34-.43-.6-.56-.25-.13-.53-.2-.82-.2-.63,0-1.12,.28-1.48,.83-.05,.07-.13,.27-.24,.59-.11,.32-.24,.57-.38,.74-.14,.17-.35,.26-.62,.26-.24,0-.44-.08-.6-.24s-.24-.37-.24-.65c0-.33,.07-.67,.22-1.03,.15-.36,.37-.68,.66-.98,.29-.29,.67-.53,1.12-.71,.45-.18,.98-.27,1.59-.27,.73,0,1.36,.12,1.87,.34,.33,.15,.63,.36,.88,.63,.25,.27,.45,.58,.59,.93,.14,.35,.21,.72,.21,1.09,0,.59-.15,1.13-.44,1.62-.29,.49-.59,.87-.9,1.14-.31,.28-.82,.71-1.54,1.29-.72,.59-1.21,1.05-1.48,1.37-.11,.13-.23,.29-.35,.47Z"/><path class="cls-2" d="M32.99,70.7v-6.53c-1.22,.93-2.03,1.4-2.46,1.4-.2,0-.38-.08-.54-.24s-.23-.35-.23-.56c0-.24,.08-.42,.23-.54,.15-.11,.42-.26,.81-.44,.58-.27,1.04-.56,1.39-.86,.35-.3,.65-.64,.92-1.01,.27-.37,.44-.6,.52-.69,.08-.09,.24-.13,.46-.13,.25,0,.46,.1,.61,.29,.15,.2,.23,.47,.23,.81v8.22c0,.96-.33,1.44-.98,1.44-.29,0-.53-.1-.7-.29-.18-.2-.27-.49-.27-.87Z"/><path class="cls-2" d="M101.44,65.51c.44,0,.82-.13,1.14-.39,.32-.26,.48-.63,.48-1.11,0-.37-.13-.69-.38-.95-.25-.27-.6-.4-1.03-.4-.29,0-.53,.04-.72,.12-.19,.08-.34,.19-.45,.32-.11,.13-.21,.31-.31,.52-.1,.21-.19,.41-.27,.6-.05,.1-.13,.18-.26,.24-.12,.06-.27,.09-.43,.09-.19,0-.37-.08-.53-.23-.16-.16-.24-.36-.24-.62s.08-.51,.23-.79c.15-.28,.37-.54,.66-.79,.29-.25,.65-.45,1.08-.6s.91-.23,1.44-.23c.46,0,.89,.06,1.27,.19,.38,.13,.72,.31,1,.55s.5,.52,.64,.83c.14,.32,.22,.66,.22,1.02,0,.48-.1,.89-.31,1.23-.21,.34-.51,.68-.89,1,.37,.2,.69,.43,.94,.69,.26,.26,.45,.54,.58,.86s.19,.65,.19,1.02c0,.44-.09,.86-.26,1.26-.17,.41-.43,.77-.77,1.09s-.74,.57-1.21,.75c-.47,.18-.98,.27-1.55,.27s-1.09-.1-1.54-.31c-.45-.21-.83-.46-1.12-.77s-.52-.63-.67-.96c-.15-.33-.23-.6-.23-.82,0-.28,.09-.5,.27-.67,.18-.17,.4-.25,.67-.25,.13,0,.26,.04,.39,.12,.12,.08,.21,.17,.24,.28,.25,.67,.52,1.16,.8,1.48,.29,.32,.69,.48,1.2,.48,.3,0,.58-.07,.86-.22,.27-.15,.5-.36,.68-.65s.27-.62,.27-1c0-.56-.15-1-.46-1.32-.31-.32-.73-.48-1.28-.48-.1,0-.24,0-.45,.03s-.33,.03-.39,.03c-.26,0-.47-.07-.61-.2s-.22-.31-.22-.55,.09-.42,.26-.56c.17-.14,.43-.21,.77-.21h.29Z"/></g><g id="Circulo"><circle class="cls-1" cx="66.74" cy="68.7" r="61.08"/></g></svg>