<svg width="101" height="100" viewBox="0 0 101 100" fill="none" xmlns="http://www.w3.org/2000/svg">
<path d="M50.4743 100C40.4846 99.995 30.7207 97.0565 22.418 91.5564C14.1152 86.0563 7.6465 78.2416 3.83022 69.101C0.0139381 59.9603 -0.97848 49.9043 0.978507 40.2051C2.93549 30.5058 7.75396 21.5992 14.8244 14.6118C21.8948 7.62442 30.8994 2.87024 40.6993 0.950682C50.4991 -0.968881 60.6538 0.0324177 69.8788 3.82791C79.1037 7.62341 86.9845 14.0426 92.5242 22.2734C98.0638 30.5042 101.013 40.1768 101 50.0676C100.984 63.3218 95.6528 76.0273 86.1782 85.3907C76.7035 94.7541 63.8611 100.009 50.4743 100ZM50.5427 2.34997C41.0457 2.34389 31.7592 5.11992 23.8525 10.3285C15.9457 15.5372 9.77211 22.9455 6.10903 31.6208C2.44595 40.2962 1.45713 49.8506 3.26706 59.0812C5.077 68.3118 9.60478 76.8058 16.2803 83.4939C22.9559 90.1819 31.4807 94.765 40.7816 96.666C50.0824 98.5671 59.7434 97.7011 68.5482 94.1771C77.3529 90.6531 84.9078 84.6287 90.2617 76.8623C95.6155 69.096 98.5289 59.9349 98.635 50.5325C98.705 44.2335 97.513 37.9833 95.128 32.1432C92.743 26.3032 89.2123 20.9892 84.7401 16.5086C80.2679 12.028 74.9429 8.46971 69.0731 6.03944C63.2033 3.60917 56.905 2.35518 50.5427 2.34997Z" fill="#0D658B"/>
<path d="M60.8794 54.762H40.7184C40.3446 54.762 40.0415 55.1465 40.0415 55.6208V56.284C40.0415 56.7584 40.3446 57.1429 40.7184 57.1429H60.8794C61.2532 57.1429 61.5563 56.7584 61.5563 56.284V55.6208C61.5563 55.1465 61.2532 54.762 60.8794 54.762Z" fill="#0D658B"/>
<path d="M52.5167 61.3096H40.7142C40.3427 61.3096 40.0415 61.598 40.0415 61.9537V62.4511C40.0415 62.8069 40.3427 63.0953 40.7142 63.0953H52.5167C52.8882 63.0953 53.1894 62.8069 53.1894 62.4511V61.9537C53.1894 61.598 52.8882 61.3096 52.5167 61.3096Z" fill="#0D658B"/>
<path d="M49.8756 47.5545C49.8367 47.5682 49.7943 47.5682 49.7555 47.5545C48.7236 47.4699 47.7502 47.0424 46.9916 46.3407C46.8735 46.2356 46.7207 46.1775 46.5624 46.1775C46.404 46.1775 46.2512 46.2356 46.1332 46.3407L45.6096 46.8536C45.5462 46.9158 45.4967 46.9905 45.4642 47.073C45.4316 47.1554 45.4168 47.2438 45.4208 47.3323C45.4245 47.4215 45.4461 47.5091 45.4845 47.5899C45.5228 47.6707 45.577 47.7429 45.644 47.8024C46.7567 48.8352 48.2016 49.4411 49.7211 49.512C49.7568 49.5162 49.7896 49.5333 49.8134 49.5601C49.8371 49.5869 49.8501 49.6215 49.8499 49.6573V51.136C49.8499 51.3083 49.9186 51.4736 50.0409 51.5954C50.1633 51.7172 50.3292 51.7857 50.5022 51.7857H50.9571C51.1302 51.7857 51.2961 51.7172 51.4184 51.5954C51.5408 51.4736 51.6095 51.3083 51.6095 51.136V49.6402C51.6092 49.6044 51.6222 49.5698 51.646 49.543C51.6697 49.5162 51.7026 49.4991 51.7382 49.4949C54.4678 49.1871 56.1759 47.5032 56.1759 45.1098C56.193 44.5198 56.0787 43.9332 55.8412 43.3924C55.6038 42.8515 55.2491 42.3696 54.8025 41.9813C53.9937 41.3398 53.0097 40.9556 51.9786 40.8787L51.661 40.8274C51.6261 40.8231 51.5942 40.8056 51.5718 40.7786C51.5494 40.7516 51.5384 40.717 51.5408 40.6821V36.0834C51.5413 36.0623 51.5461 36.0416 51.555 36.0225C51.5639 36.0034 51.5766 35.9863 51.5923 35.9722C51.6112 35.9637 51.6317 35.9593 51.6524 35.9593C51.6731 35.9593 51.6936 35.9637 51.7125 35.9722C52.4771 36.0777 53.1968 36.3946 53.7897 36.8869C53.9132 36.987 54.0699 37.0373 54.2289 37.0278C54.3879 37.0183 54.5375 36.9497 54.648 36.8356L55.103 36.3825C55.1676 36.3168 55.2176 36.2382 55.2498 36.152C55.282 36.0658 55.2958 35.9738 55.2901 35.882C55.2844 35.7902 55.2595 35.7006 55.2169 35.619C55.1744 35.5373 55.1151 35.4655 55.0429 35.4081C54.0985 34.6346 52.9397 34.1664 51.7211 34.0661C51.6854 34.0619 51.6526 34.0447 51.6288 34.0179C51.6051 33.9911 51.5921 33.9565 51.5923 33.9208V32.801C51.5923 32.6279 51.5239 32.4618 51.4018 32.3386C51.2797 32.2154 51.1138 32.1451 50.94 32.1428H50.4851C50.3113 32.1451 50.1453 32.2154 50.0232 32.3386C49.9011 32.4618 49.8327 32.6279 49.8327 32.801V33.8951C49.8332 33.9296 49.8215 33.9632 49.7994 33.9898C49.7774 34.0164 49.7466 34.0344 49.7125 34.0404C48.5923 34.0937 47.5376 34.5815 46.774 35.3994C46.0104 36.2174 45.5986 37.3005 45.6268 38.4169C45.6014 38.9714 45.699 39.5246 45.9126 40.0372C46.1262 40.5499 46.4507 41.0094 46.8628 41.383C47.6799 42.045 48.6733 42.455 49.7211 42.5626H49.9185V47.4177C49.9231 47.4423 49.9215 47.4676 49.914 47.4914C49.9066 47.5152 49.8934 47.5369 49.8756 47.5545ZM49.9271 36.0834V40.3573C49.9276 40.3794 49.9223 40.4012 49.9118 40.4207C49.9012 40.4402 49.8858 40.4566 49.867 40.4684C49.8257 40.485 49.7796 40.485 49.7383 40.4684C49.2135 40.3614 48.7202 40.1363 48.2963 39.8102C48.0912 39.616 47.9323 39.3786 47.8313 39.1153C47.7303 38.852 47.6897 38.5696 47.7126 38.2887C47.6843 37.7033 47.879 37.1289 48.2578 36.6803C48.6365 36.2318 49.1715 35.9422 49.7555 35.8697C49.7691 35.864 49.7836 35.8611 49.7984 35.8611C49.8131 35.8611 49.8277 35.864 49.8413 35.8697C49.8628 35.8757 49.8826 35.8866 49.8991 35.9015C49.9157 35.9164 49.9287 35.9349 49.937 35.9555C49.9453 35.9761 49.9487 35.9984 49.947 36.0206C49.9453 36.0427 49.9385 36.0642 49.9271 36.0834ZM51.5408 47.4348V42.9814C51.5413 42.9604 51.5461 42.9397 51.555 42.9206C51.5639 42.9014 51.5766 42.8843 51.5923 42.8703C51.6228 42.8592 51.6563 42.8592 51.6867 42.8703C52.3136 42.9002 52.9148 43.1277 53.4034 43.52C53.6314 43.7395 53.8074 44.0068 53.9187 44.3025C54.0301 44.5982 54.074 44.9148 54.0472 45.2295C54.0498 45.8594 53.8055 46.4655 53.3662 46.9189C52.927 47.3722 52.3276 47.6371 51.6953 47.6571C51.6764 47.6656 51.656 47.67 51.6352 47.67C51.6145 47.67 51.594 47.6656 51.5752 47.6571C51.5577 47.6452 51.5428 47.6299 51.5315 47.612C51.5202 47.5942 51.5128 47.5742 51.5095 47.5534C51.5063 47.5326 51.5074 47.5113 51.5128 47.4909C51.5182 47.4705 51.5277 47.4514 51.5408 47.4348Z" fill="#0D658B"/>
<path d="M31.0769 55.4121V64.1782C31.0769 64.6557 31.0769 65.4573 32.0019 65.4743C32.1265 65.4823 32.2514 65.4653 32.3694 65.4243C32.4875 65.3833 32.5962 65.3192 32.6893 65.2356C32.8048 65.0842 32.8891 64.9112 32.9371 64.7267C32.9852 64.5422 32.9962 64.3499 32.9693 64.1611V31.237C32.9693 29.5316 33.6822 28.7982 35.2776 28.7982C45.164 28.7982 55.305 28.7982 66.2776 28.7982C67.8306 28.7982 68.5264 29.4975 68.5519 31.058C68.5519 32.1665 68.4755 35.3984 68.4755 35.4325C68.4755 35.598 68.5139 35.7612 68.5875 35.9092C68.6612 36.0572 68.7681 36.1859 68.8998 36.2852C68.9738 36.3452 69.0612 36.3862 69.1544 36.4046C69.2587 36.4382 69.3674 36.4554 69.4769 36.4558C69.753 36.4535 70.0172 36.3423 70.2125 36.1461C70.4078 35.9499 70.5185 35.6844 70.5207 35.4069C70.5207 35.4069 70.5207 32.4138 70.5207 31.3308C70.5207 28.3548 68.9423 26.7858 65.9636 26.7858H35.6085C32.6044 26.7858 31.0769 28.3122 31.0769 31.3394V55.4121Z" fill="#0D658B"/>
<path d="M70.517 39.225C70.5282 39.0816 70.5135 38.9371 70.4737 38.8006C70.434 38.6642 70.37 38.5388 70.286 38.4326C70.202 38.3263 70.0998 38.2414 69.9859 38.1833C69.8719 38.1252 69.7488 38.0952 69.6242 38.0952C69.4997 38.0952 69.3765 38.1252 69.2626 38.1833C69.1486 38.2414 69.0464 38.3263 68.9624 38.4326C68.8784 38.5388 68.8145 38.6642 68.7747 38.8006C68.735 38.9371 68.7202 39.0816 68.7314 39.225C68.7314 39.225 68.7314 40.5731 68.7314 44.3985V44.6428H68.9719C69.4033 44.5924 69.8379 44.5924 70.2692 44.6428H70.5025V39.5873C70.5178 39.4674 70.5227 39.346 70.517 39.225Z" fill="#0D658B"/>
<path d="M68.7965 57.7466H68.5176V57.9777C68.5176 62.258 68.5176 66.4269 68.5176 69.5601C68.5446 70.1174 68.4818 70.6754 68.3316 71.2123C68.1368 71.8135 67.7298 72.3207 67.1885 72.6366C66.6473 72.9526 66.0099 73.055 65.3986 72.9244C64.7362 72.8038 64.1408 72.4404 63.7261 71.9036C63.3114 71.3667 63.1064 70.694 63.1503 70.0138C63.0996 67.4456 62.3896 66.7266 59.8454 66.7266H30.676C30.3202 66.7097 29.9636 66.7269 29.611 66.7779C29.0909 66.8423 28.6075 67.0828 28.2392 67.4604C27.871 67.838 27.6396 68.3306 27.5825 68.8581C27.4397 69.633 27.4647 70.4301 27.6559 71.1943C27.8471 71.9584 28.1998 72.6714 28.6897 73.2839C29.2098 73.8506 29.8446 74.297 30.5506 74.5925C31.2566 74.8879 32.0173 75.0256 32.7807 74.996H65.3056C68.619 74.996 70.5208 73.0699 70.5208 69.7227V57.738H70.2503C69.7673 57.7922 69.2801 57.7951 68.7965 57.7466ZM61.8486 72.9843H56.4644C48.7135 72.9843 40.7006 72.9843 32.7976 72.9843C32.0186 72.9727 31.2558 72.7574 30.5831 72.3594C30.106 71.9875 29.7547 71.4749 29.5776 70.8922C29.4004 70.3096 29.4062 69.6856 29.5941 69.1064C29.6941 68.9358 29.8495 68.8057 30.0337 68.7383C30.1034 68.7238 30.1753 68.7238 30.245 68.7383H30.4563H60.0398C60.3667 68.6996 60.698 68.7317 61.0118 68.8325C61.1048 68.9095 61.1301 69.2006 61.1724 69.6885V69.9025C61.2747 70.6786 61.4358 71.4456 61.6542 72.1967C61.7218 72.4535 61.781 72.7189 61.8486 72.9843Z" fill="#0D658B"/>
<path d="M77.6905 50.7869H75.8244V50.9313C75.8244 51.0587 75.8244 51.1861 75.8244 51.3136C75.8045 51.5701 75.7702 51.8253 75.7217 52.0781C75.4875 53.2767 74.8967 54.3781 74.0255 55.2402C73.1543 56.1024 72.0428 56.6856 70.8343 56.9147C69.6258 57.1438 68.3758 57.0082 67.2457 56.5254C66.1157 56.0426 65.1573 55.2348 64.4945 54.2062C63.8316 53.1776 63.4946 51.9755 63.5269 50.755C63.5593 49.5345 63.9596 48.3517 64.676 47.3591C65.3925 46.3666 66.3923 45.6099 67.5464 45.1867C68.7005 44.7636 69.9559 44.6934 71.1506 44.9852C71.2325 45.0062 71.318 45.0088 71.401 44.9926C71.484 44.9764 71.5622 44.942 71.63 44.8918C71.921 44.6285 72.1949 44.3651 72.486 44.0423L72.9825 43.5582L72.7428 43.4647C71.268 42.8609 69.6463 42.7027 68.0813 43.0102C66.5163 43.3176 65.0777 44.077 63.946 45.1929C62.8144 46.3088 62.0401 47.7316 61.7204 49.2826C61.4007 50.8337 61.5498 52.4439 62.1491 53.9111C62.7483 55.3784 63.7709 56.6373 65.0886 57.5298C66.4063 58.4224 67.9603 58.9088 69.5556 58.928C71.1508 58.9473 72.7163 58.4985 74.0554 57.638C75.3946 56.7775 76.4477 55.5436 77.0827 54.0912C77.5065 53.0979 77.7136 52.0268 77.6905 50.9483V50.7869Z" fill="#0D658B"/>
<path d="M66.4586 49.3852L65.1421 50.6049L68.9358 54.1666L77.0947 46.5066L75.7436 45.238L68.8838 51.6702L66.4586 49.3852Z" fill="#0D658B"/>
</svg>
