<?xml version="1.0" encoding="UTF-8"?><svg xmlns="http://www.w3.org/2000/svg" viewBox="0 0 136.39 138.99"><defs><style>.cls-1{fill:none;stroke:#000;stroke-miterlimit:10;stroke-width:2px;}</style></defs><g id="Micrositios"><rect class="cls-1" x="24.45" y="37.93" width="85.26" height="63.25" rx="8.47" ry="8.47"/><line class="cls-1" x1="25.41" y1="48.72" x2="109.11" y2="48.72"/><g><path d="M43.99,68.77l1.8,6.18,1.64-5.75c.18-.6,.31-1.01,.39-1.23,.08-.22,.24-.43,.48-.63,.23-.2,.55-.3,.96-.3s.73,.1,.97,.3c.23,.2,.4,.42,.49,.65,.09,.23,.23,.64,.39,1.21l1.64,5.75,1.82-6.18c.12-.45,.22-.77,.29-.97,.07-.2,.2-.38,.38-.53s.43-.23,.76-.23,.62,.11,.86,.34c.24,.23,.36,.5,.36,.81,0,.28-.1,.71-.31,1.29l-2.26,6.63c-.2,.56-.35,.97-.46,1.22-.11,.25-.28,.47-.51,.67-.23,.2-.55,.29-.96,.29s-.75-.1-.99-.31c-.24-.21-.42-.47-.53-.77s-.24-.7-.38-1.19l-1.58-5.39-1.53,5.39c-.2,.75-.42,1.32-.66,1.7s-.65,.57-1.25,.57c-.3,0-.56-.06-.78-.18s-.39-.29-.53-.51c-.14-.22-.27-.48-.38-.78-.11-.3-.19-.54-.25-.71l-2.24-6.63c-.22-.62-.33-1.05-.33-1.29,0-.3,.12-.56,.35-.8,.24-.24,.53-.35,.87-.35,.46,0,.77,.13,.93,.39,.16,.26,.33,.7,.52,1.33Z"/><path d="M60.86,68.77l1.8,6.18,1.64-5.75c.18-.6,.31-1.01,.39-1.23,.08-.22,.24-.43,.48-.63,.23-.2,.55-.3,.96-.3s.74,.1,.97,.3c.23,.2,.4,.42,.49,.65,.09,.23,.23,.64,.4,1.21l1.64,5.75,1.82-6.18c.12-.45,.22-.77,.29-.97,.07-.2,.2-.38,.38-.53s.43-.23,.76-.23,.62,.11,.86,.34c.24,.23,.37,.5,.37,.81,0,.28-.11,.71-.31,1.29l-2.26,6.63c-.2,.56-.35,.97-.46,1.22-.11,.25-.28,.47-.51,.67-.23,.2-.55,.29-.96,.29s-.75-.1-.99-.31c-.24-.21-.42-.47-.53-.77-.12-.3-.24-.7-.38-1.19l-1.58-5.39-1.53,5.39c-.2,.75-.42,1.32-.66,1.7-.24,.38-.65,.57-1.25,.57-.3,0-.56-.06-.78-.18s-.39-.29-.53-.51c-.14-.22-.27-.48-.38-.78-.11-.3-.19-.54-.25-.71l-2.24-6.63c-.22-.62-.33-1.05-.33-1.29,0-.3,.12-.56,.35-.8,.24-.24,.53-.35,.87-.35,.46,0,.77,.13,.93,.39,.16,.26,.33,.7,.52,1.33Z"/><path d="M77.74,68.77l1.8,6.18,1.64-5.75c.18-.6,.31-1.01,.39-1.23,.08-.22,.24-.43,.48-.63,.23-.2,.55-.3,.96-.3s.74,.1,.97,.3c.23,.2,.4,.42,.49,.65,.09,.23,.23,.64,.4,1.21l1.64,5.75,1.82-6.18c.12-.45,.22-.77,.29-.97,.07-.2,.2-.38,.38-.53s.43-.23,.76-.23,.62,.11,.86,.34c.24,.23,.37,.5,.37,.81,0,.28-.11,.71-.31,1.29l-2.26,6.63c-.2,.56-.35,.97-.46,1.22-.11,.25-.28,.47-.51,.67-.23,.2-.55,.29-.96,.29s-.75-.1-.99-.31c-.24-.21-.42-.47-.53-.77-.11-.3-.24-.7-.38-1.19l-1.58-5.39-1.53,5.39c-.2,.75-.42,1.32-.66,1.7s-.65,.57-1.25,.57c-.3,0-.56-.06-.78-.18s-.39-.29-.53-.51c-.14-.22-.27-.48-.38-.78-.11-.3-.19-.54-.25-.71l-2.24-6.63c-.22-.62-.33-1.05-.33-1.29,0-.3,.12-.56,.35-.8,.24-.24,.53-.35,.87-.35,.46,0,.77,.13,.93,.39,.16,.26,.33,.7,.52,1.33Z"/></g><circle cx="31.46" cy="42.95" r="1.73"/><circle cx="36.46" cy="42.95" r="1.73"/><circle cx="41.46" cy="42.95" r="1.73"/></g><g id="Circulo"><circle class="cls-1" cx="66.74" cy="68.7" r="61.08"/></g></svg>