<?xml version="1.0" encoding="UTF-8"?><svg xmlns="http://www.w3.org/2000/svg" viewBox="0 0 136.39 138.99"><defs><style>.cls-1{fill:none;stroke:#000;stroke-miterlimit:10;stroke-width:2px;}</style></defs><g id="Formularios"><path class="cls-1" d="M87.4,102.4h-28.46c-2.91,0-5.29-2.33-5.35-5.24l-.04-1.98c-.06-2.74-2.18-4.99-4.91-5.22l-2.7-.23c-2.77-.23-4.91-2.55-4.91-5.34V44.34c0-2.96,2.4-5.35,5.35-5.35h41.02c2.96,0,5.35,2.4,5.35,5.35v52.71c0,2.96-2.4,5.35-5.35,5.35Z"/><path d="M58.8,75.04c-.38,0-.7-.13-.97-.41-.27-.27-.41-.59-.41-.97l-.04-17.05c0-.08-.01-.16-.01-.25,0-.13,.03-.25,.09-.37,.06-.12,.13-.24,.21-.37,.22-.36,.54-.54,.95-.54,.66,0,1.11,.26,1.36,.77l7.35,11.99,6.8-12c.27-.46,.65-.69,1.11-.69,.39,0,.74,.13,1.03,.38,.29,.26,.44,.59,.44,.99v17.18c0,.38-.14,.7-.41,.97s-.59,.41-.97,.41-.7-.13-.97-.41c-.27-.27-.41-.59-.41-.97v-12.28l-5.4,9.81c-.1,.17-.26,.32-.47,.47s-.44,.23-.69,.23c-.53,0-.94-.22-1.22-.66l-6.06-9.9,.04,12.27h0c0,.39-.13,.71-.41,.98-.27,.27-.59,.41-.97,.41Z"/></g><g id="Circulo"><circle class="cls-1" cx="66.74" cy="68.7" r="61.08"/></g></svg>