<?xml version="1.0" encoding="UTF-8"?><svg xmlns="http://www.w3.org/2000/svg" viewBox="0 0 136.39 138.99"><defs><style>.cls-1{fill:#fff;}.cls-2{fill:none;stroke:#000;stroke-miterlimit:10;stroke-width:2px;}.cls-3{fill:#109dd9;}</style></defs><g id="Constatación"><path class="cls-2" d="M87.4,102.39h-28.46c-2.91,0-5.29-2.33-5.35-5.24l-.04-1.98c-.06-2.74-2.18-4.99-4.91-5.22l-2.7-.23c-2.77-.23-4.91-2.55-4.91-5.34V44.32c0-2.96,2.4-5.35,5.35-5.35h41.02c2.96,0,5.35,2.4,5.35,5.35v52.71c0,2.96-2.4,5.35-5.35,5.35Z"/><rect x="51.43" y="53.57" width="20.01" height=".78" transform="translate(122.88 107.93) rotate(180)"/><rect x="51.43" y="56.3" width="20.01" height=".78"/><rect x="51.43" y="59.3" width="20.01" height=".78"/><ellipse class="cls-1" cx="83.69" cy="49.5" rx="14.95" ry="15.29"/><g><path class="cls-3" d="M83.54,33.09c-9.2,0-16.6,7.4-16.6,16.6s7.4,16.6,16.6,16.6c3.4,0,6.6-1,9.2-2.8l3.8,3.8-.4,.4c-.4,.4-.4,1,0,1.4l10.6,10.6c1.9,1.9,4.9,1.9,6.7,0,1.9-1.9,1.9-4.9,0-6.7l-10.5-10.7c-.4-.4-1-.4-1.4,0l-.4,.4-3.9-3.9c1.8-2.6,2.8-5.8,2.8-9.2,0-9.1-7.4-16.5-16.5-16.5Zm-14.6,16.6c0-8.1,6.5-14.6,14.6-14.6s14.6,6.5,14.6,14.6-6.5,14.6-14.6,14.6c-8.1-.1-14.6-6.6-14.6-14.6Zm43.2,24.7c1.1,1.1,1.1,2.8,0,3.9-1,1-2.9,1-3.9,0l-9.9-9.9c.8-.8,4.2-4.2,3.9-3.9l9.9,9.9Zm-14.2-8.5l-3.2-3.2,1.7-1.7,3.2,3.2-1.7,1.7Z"/><path class="cls-3" d="M83.54,37.39c-6.7,0-12.2,5.5-12.2,12.2s5.5,12.2,12.2,12.2,12.2-5.5,12.2-12.2-5.5-12.2-12.2-12.2Zm0,22.5c-5.6,0-10.2-4.6-10.2-10.2s4.6-10.2,10.2-10.2,10.2,4.6,10.2,10.2-4.6,10.2-10.2,10.2Z"/></g></g><g id="Circulo"><circle class="cls-2" cx="66.74" cy="68.7" r="61.08"/></g></svg>